<?xml version="1.0" encoding="utf-8"?>
<!-- Generator: Adobe Illustrator 26.0.3, SVG Export Plug-In . SVG Version: 6.00 Build 0)  -->
<svg version="1.0" id="Layer_1" xmlns="http://www.w3.org/2000/svg" xmlns:xlink="http://www.w3.org/1999/xlink" x="0px" y="0px"
	 viewBox="0 0 1100.4 863" style="enable-background:new 0 0 1100.4 863;" xml:space="preserve">
<style type="text/css">
	.st0{fill:url(#SVGID_1_);}
	.st1{fill:#FFFFFF;}
	.st2{fill:url(#SVGID_00000091734377708601931940000007792531416539949728_);}
</style>
<linearGradient id="SVGID_1_" gradientUnits="userSpaceOnUse" x1="551.3726" y1="179.0576" x2="551.3726" y2="-113.1424" gradientTransform="matrix(1.33 0 0 1.33 -97.9033 273.2033)">
	<stop  offset="0" style="stop-color:#2974BA"/>
	<stop  offset="0.16" style="stop-color:#2F7BBF"/>
	<stop  offset="0.53" style="stop-color:#4B8CCB"/>
	<stop  offset="0.82" style="stop-color:#5F98D2"/>
	<stop  offset="1" style="stop-color:#679CD3"/>
</linearGradient>
<path class="st0" d="M910.2,388C909,327,863.5,276.1,803,268c-3.7-85-75-151.3-160-148.8c-68.1-1.1-129.5,41.2-152.8,105.2
	c-72.4,8.7-127.5,69.1-129.6,142c2.2,82.6,70.9,147.8,153.5,145.6c0,0,0,0,0,0h1.3h270.8C854.4,511.4,909.6,456.2,910.2,388z"/>
<path class="st1" d="M765.8,280.8l-73.2-71.2c-8-8-14.8-5.2-14.8,7.2v32c0,4.9-3.9,8.8-8.8,8.8c0,0,0,0,0,0h-0.4
	C621.4,257.6,489.8,270,485,450c0,5.1,4.1,9.2,9.2,9.2h0H541c5.1,0,9.2-4.1,9.2-9.1c0,0,0,0,0,0c0-0.3,0-0.6,0-0.8
	c-13-59.6,24.8-118.4,84.4-131.3c11.7-2.5,23.7-3.2,35.6-1.9c5.1,0,9.2,4.1,9.2,9.2v0v29.6c0,14.8,4.8,17.2,14.8,7.2l71.6-66
	c4.2-2.9,5.2-8.6,2.4-12.8C767.6,282.2,766.8,281.4,765.8,280.8z"/>
<linearGradient id="SVGID_00000003799200358185519900000016880467466319787424_" gradientUnits="userSpaceOnUse" x1="428.9666" y1="354.4876" x2="428.9666" y2="53.8976" gradientTransform="matrix(1.33 0 0 1.33 -97.9033 273.2033)">
	<stop  offset="0" style="stop-color:#1C8BB4"/>
	<stop  offset="0.13" style="stop-color:#22A0C7"/>
	<stop  offset="0.31" style="stop-color:#2AB7DB"/>
	<stop  offset="0.5" style="stop-color:#44BFE2"/>
	<stop  offset="0.72" style="stop-color:#53C2E4"/>
	<stop  offset="1" style="stop-color:#58C3E6"/>
</linearGradient>
<path style="fill:url(#SVGID_00000003799200358185519900000016880467466319787424_);" d="M755,618.4c-1.8-62.1-48.4-113.8-110-122
	c-3.7-87.6-77.2-155.9-164.8-153.2c-69.7-1.3-132.7,41.8-156.8,107.2c-74.3,8.9-131,70.8-133.2,145.6
	c3.2,84.8,74.6,150.9,159.4,147.6h0.6h271.2c2.2,0.4,4.6,0.4,6.8,0C697.3,742.8,753.3,687.4,755,618.4z"/>
</svg>
