<svg width="1251.7" height="1251" xmlns="http://www.w3.org/2000/svg" xmlns:xlink="http://www.w3.org/1999/xlink" stroke="null" style="vector-effect: non-scaling-stroke;" xml:space="preserve" version="1.0">
 <g stroke="null">
  <title stroke="null">Layer 1</title>
  <g stroke="null" id="svg_1">
   <defs stroke="null" transform="translate(268.464 101.399) scale(1.36517 1.36517) translate(-268.464 -101.399) translate(911.392 767.677) scale(1.07686 1.07686) translate(-911.392 -767.677) translate(846.339 19.4806) scale(1.17226 1.17226) translate(-846.339 -19.4806)">
    <rect stroke="null" height="714.7" width="714.7" y="90.7" x="268.5" id="SVGID_1_"/>
    <linearGradient stroke="null" y2="0.50004" x2="1.33152" y1="0.50004" x1="0.06961" id="SVGID_00000147200436233561406450000008453822583445049765_">
     <stop stroke="null" stop-color="#5C4998" offset="0"/>
     <stop stroke="null" stop-color="#5C4998" offset="0"/>
     <stop stroke="null" stop-color="#52378D" offset="1"/>
    </linearGradient>
    <linearGradient stroke="null" y2="0.96949" x2="0.50008" y1="0.04438" x1="0.50008" id="SVGID_00000170986576816716051080000000457877711619541649_">
     <stop stroke="null" stop-color="#8C7AB7" offset="0"/>
     <stop stroke="null" stop-color="#5C4998" offset="1"/>
     <stop stroke="null" stop-color="#5C4998" offset="1"/>
    </linearGradient>
   </defs>
   <clipPath stroke="null" transform="translate(268.464 101.399) scale(1.36517 1.36517) translate(-268.464 -101.399) translate(911.392 767.677) scale(1.07686 1.07686) translate(-911.392 -767.677) translate(846.339 19.4806) scale(1.17226 1.17226) translate(-846.339 -19.4806)" id="SVGID_00000132801979269337085580000000538142647701171880_">
    <use stroke="null" id="svg_2" xlink:href="#SVGID_1_"/>
   </clipPath>
   <g stroke="null" id="svg_3" clip-path="url(#SVGID_00000132801979269337085580000000538142647701171880_)">
    <path stroke="null" id="svg_4" fill="#39BCDB" d="m1166.99176,400.36424l-74.62063,-26.02244c-13.61439,-28.09044 -30.15845,-54.62988 -49.28753,-79.44598c-1.37867,-2.06801 -2.75734,-3.44668 -3.44668,-4.82535c18.43974,-6.72103 35.15614,-17.2334 49.28753,-30.84779c33.08813,42.73883 59.45523,90.30302 78.06731,141.14155zm-309.33954,-324.67727c-9.6507,17.06107 -15.85473,36.01781 -18.43974,55.49155c-1.37867,-0.68934 -3.44668,-1.37867 -4.82535,-2.06801c-65.31459,-28.77978 -135.97153,-43.42817 -207.31781,-43.0835c-156.47928,0.17233 -304.68653,70.48461 -403.77858,191.63542l-19.81841,4.13602c-21.54175,4.48068 -32.57113,17.57807 -32.9158,39.63682l0,31.53712l-69.79527,12.92505c94.43904,-205.59447 300.03351,-337.42999 526.30806,-337.25765c79.27364,-0.17233 157.85795,15.85473 230.5829,47.04718zm-600.06702,897.17085c-17.2334,9.47837 -32.05413,22.57576 -43.77284,38.25815c-47.56419,-48.59819 -86.167,-105.12375 -114.25745,-166.99165l71.17395,15.68239l0,17.7504c-0.17233,22.05875 10.51237,35.50081 32.22646,40.32616l9.6507,2.06801c12.75272,17.7504 27.05644,34.4668 42.39417,49.97686l2.58501,2.92968zm913.54258,-170.43833c-82.54799,229.5489 -300.20584,382.5815 -544.05846,382.5815c-53.94054,0.34467 -107.70876,-7.41036 -159.40896,-22.57576c7.92736,-17.92274 12.06338,-37.22415 12.23571,-56.87022c0.68934,0 2.06801,0.68934 2.75734,0.68934c46.87485,13.78672 95.47304,20.68008 144.4159,20.50775c99.60906,-0.17233 191.63542,-26.71177 276.25142,-79.44598c84.44366,-52.73421 148.72425,-123.90815 192.49709,-213.3495l0.68934,-0.68934l74.62063,-30.84779z" class="st1"/>
    <path stroke="null" id="svg_5" fill="#FFFFFF" d="m701.68994,824.99523l173.71268,38.25815l-269.53039,111.67244c-1.37867,0 -2.06801,0.68934 -3.44668,0.68934c-6.72103,-0.17233 -10.16771,-3.61901 -10.34004,-10.34004l0,-719.14982c0.17233,-6.72103 3.61901,-10.16771 10.34004,-10.16771c1.20634,-0.17233 2.41268,0.17233 3.44668,0.68934l305.20353,106.67475l-208.69648,38.94749c-19.64608,4.48068 -29.64145,16.7164 -30.15845,36.87948l0,369.48411c0,20.33541 9.6507,32.39879 29.46912,36.36248z" class="st2"/>
    <path stroke="null" id="svg_6" fill="#8C7AB7" d="m87.8362,398.1239l82.72032,-15.68239l0,448.24076l-84.099,-18.61207l-67.72727,-14.99306c-4.48068,-0.86167 -6.54869,-3.61901 -6.20402,-8.27203l0,-369.48411c-0.517,-3.96368 2.24034,-7.5827 6.20402,-8.27203l69.10594,-12.92505z" class="st3"/>
    <path stroke="null" id="svg_7" fill="url(#SVGID_00000147200436233561406450000008453822583445049765_)" d="m701.68994,824.99523l173.71268,38.25815l-269.53039,111.67244c-1.37867,0 -2.06801,0.68934 -3.44668,0.68934c-6.72103,-0.17233 -10.16771,-3.61901 -10.34004,-10.34004l0,-719.14982c0.17233,-6.72103 3.61901,-10.16771 10.34004,-10.16771c1.20634,-0.17233 2.41268,0.17233 3.44668,0.68934l305.20353,106.67475l-208.69648,38.94749c-19.64608,4.48068 -29.64145,16.7164 -30.15845,36.87948l0,369.48411c0,20.33541 9.6507,32.39879 29.46912,36.36248z"/>
    <path stroke="null" id="svg_8" fill="url(#SVGID_00000170986576816716051080000000457877711619541649_)" d="m600.01287,235.95759l-390.50886,73.75896c-6.37636,1.37867 -9.6507,5.34235 -9.6507,12.06338l0,556.12184c0,6.54869 3.10201,10.51237 9.30604,11.89105l390.50886,85.30533c9.6507,1.89567 14.47606,-2.06801 14.30372,-11.89105l0,-715.0138c0.17233,-8.0997 -3.79135,-12.06338 -11.71871,-12.23571l-2.24034,0z"/>
    <g stroke="null" id="svg_9" opacity="0.5" class="st6">
     <g stroke="null" id="svg_10">
      <defs stroke="null" transform="translate(268.464 101.399) scale(1.36517 1.36517) translate(-268.464 -101.399) translate(911.392 767.677) scale(1.07686 1.07686) translate(-911.392 -767.677) translate(846.339 19.4806) scale(1.17226 1.17226) translate(-846.339 -19.4806)">
       <rect stroke="null" height="381" width="209.6" y="243.1" x="382.8" id="SVGID_00000109726941008224636170000007220633259591993530_"/>
      </defs>
      <clipPath stroke="null" transform="translate(268.464 101.399) scale(1.36517 1.36517) translate(-268.464 -101.399) translate(911.392 767.677) scale(1.07686 1.07686) translate(-911.392 -767.677) translate(846.339 19.4806) scale(1.17226 1.17226) translate(-846.339 -19.4806)" id="SVGID_00000016785983883334044610000005718891230944580746_">
       <use stroke="null" id="svg_11" xlink:href="#SVGID_00000109726941008224636170000007220633259591993530_"/>
      </clipPath>
      <g stroke="null" id="svg_12" clip-path="url(#SVGID_00000016785983883334044610000005718891230944580746_)">
       <path stroke="null" id="svg_13" fill="#A794C6" d="m252.58751,374.8588l0,453.41078l118.22113,24.8161l0,-498.56229l-118.22113,20.33541zm166.99165,-27.91811l0,517.51903l135.97153,22.57576l0,-564.56621l-135.97153,24.47143z" class="st8"/>
      </g>
     </g>
    </g>
    <path stroke="null" id="svg_14" fill="#39BCDB" d="m1107.36419,150.47993c-0.17233,33.08813 -11.89105,61.35091 -35.32847,84.78833s-51.7002,34.9838 -84.96067,34.9838c-33.08813,0 -61.35091,-11.71871 -84.78833,-35.15614s-35.15614,-51.7002 -35.15614,-84.78833c0,-33.08813 11.71871,-61.35091 34.9838,-84.78833s51.52787,-35.32847 84.78833,-35.32847c33.26046,-0.17233 61.69557,11.71871 85.30533,35.15614s35.15614,51.7002 35.15614,85.133z" class="st1"/>
    <path stroke="null" id="svg_15" fill="#39BCDB" d="m451.11629,1103.14232c0,33.26046 -11.71871,61.69557 -35.32847,85.133c-23.43743,23.43743 -51.87254,35.32847 -85.133,35.32847c-33.26046,0 -61.69557,-11.71871 -85.133,-35.32847s-35.32847,-51.87254 -35.32847,-85.133s11.71871,-61.69557 35.32847,-85.133s51.87254,-35.32847 85.133,-35.32847c33.26046,0 61.69557,11.71871 85.133,35.32847c23.43743,23.43743 35.32847,51.87254 35.32847,85.133z" class="st1"/>
    <path stroke="null" id="svg_16" fill="#5C4998" d="m1244.19739,467.91917l0,262.9817c0.17233,6.03169 -3.44668,11.54638 -9.1337,13.61439l-52.38954,21.54175l-210.07516,86.68401l-0.68934,0c-0.86167,0.17233 -1.72334,0.17233 -2.58501,0c-4.48068,0 -6.89336,-2.24034 -6.89336,-6.89336l0,-477.53754c0,-2.58501 1.37867,-4.82535 3.79135,-6.03169l1.37867,0c0.34467,-0.17233 0.86167,-0.17233 1.37867,0c0.86167,0 1.55101,0.17233 2.24034,0.517l1.55101,0l206.62848,71.51861l54.80221,19.12907c6.72103,2.41268 10.16771,7.23803 9.99537,14.47606l0,0z" class="st9"/>
    <path stroke="null" id="svg_17" fill="#8C7AB7" d="m967.77364,361.93375l-260.05202,48.94286c-3.96368,0.517 -6.72103,3.96368 -6.37636,7.92736l0,370.17345c-0.34467,3.96368 2.41268,7.41036 6.20402,7.92736l260.05202,56.87022c5.17002,1.20634 8.27203,-0.86167 9.30604,-6.20402c0,-0.517 0,-1.20634 0,-1.72334l0,-475.98653c0,-5.34235 -2.58501,-7.92736 -7.92736,-8.0997c-0.34467,0 -0.86167,0 -1.20634,0.17233l0,0z" class="st3"/>
   </g>
  </g>
 </g>
</svg>
