<?xml version="1.0" encoding="UTF-8" standalone="no" ?>
<!DOCTYPE svg PUBLIC "-//W3C//DTD SVG 1.1//EN" "http://www.w3.org/Graphics/SVG/1.1/DTD/svg11.dtd">
<svg xmlns="http://www.w3.org/2000/svg" xmlns:xlink="http://www.w3.org/1999/xlink" version="1.1" width="1080" height="1080" viewBox="0 0 1080 1080" xml:space="preserve">
<desc>Created with Fabric.js 5.2.4</desc>
<defs>
</defs>
<g transform="matrix(1 0 0 1 540 540)" id="2795c881-3f18-4ed1-810d-4cca677a9abc"  >
<rect style="stroke: none; stroke-width: 1; stroke-dasharray: none; stroke-linecap: butt; stroke-dashoffset: 0; stroke-linejoin: miter; stroke-miterlimit: 4; fill: rgb(255,255,255); fill-rule: nonzero; opacity: 1; visibility: hidden;" vector-effect="non-scaling-stroke"  x="-540" y="-540" rx="0" ry="0" width="1080" height="1080" />
</g>
<g transform="matrix(1 0 0 1 540 540)" id="edd7f802-509f-4e07-a4c2-4998f3ac7ee5"  >
</g>
<g transform="matrix(0.86 0 0 0.86 540 540)"  >
<g style=""   >
		<g transform="matrix(1 0 0 1 4.05 -11.15)" id="Layer_1" clip-path="url(#CLIPPATH_5)"  >
<clipPath id="CLIPPATH_5" >
	<rect transform="matrix(1 0 0 1 -4.05 11.15)" id="SVGID_00000132801979269337085580000000538142647701171880_" x="-357.35" y="-357.35" rx="0" ry="0" width="714.7" height="714.7" />
</clipPath>
<path style="stroke: none; stroke-width: 1; stroke-dasharray: none; stroke-linecap: butt; stroke-dashoffset: 0; stroke-linejoin: miter; stroke-miterlimit: 4; fill: rgb(57,188,219); fill-rule: nonzero; opacity: 1;" vector-effect="non-scaling-stroke"  transform=" translate(-629.9, -436.9)" d="M 938.4 317.1 L 895.1 302 C 887.2 285.7 877.6 270.3 866.5 255.9 C 865.7 254.70000000000002 864.9 253.9 864.5 253.1 C 875.2 249.2 884.9 243.1 893.1 235.2 C 912.3 260 927.6 287.6 938.4 317.1 z M 758.9 128.7 C 753.3 138.6 749.6999999999999 149.6 748.1999999999999 160.89999999999998 C 747.4 160.49999999999997 746.1999999999999 160.09999999999997 745.4 159.7 C 707.5 143 666.5 134.5 625.1 134.7 C 534.3000000000001 134.79999999999998 448.3 175.6 390.8 245.89999999999998 L 379.3 248.29999999999998 C 366.8 250.89999999999998 360.40000000000003 258.5 360.2 271.29999999999995 L 360.2 289.59999999999997 L 319.7 297.09999999999997 C 374.5 177.79999999999995 493.79999999999995 101.29999999999995 625.0999999999999 101.39999999999998 C 671.1 101.3 716.7 110.6 758.9 128.7 z M 410.7 649.3 C 400.7 654.8 392.09999999999997 662.4 385.3 671.5 C 357.7 643.3 335.3 610.5 319 574.6 L 360.3 583.7 L 360.3 594 C 360.2 606.8 366.40000000000003 614.6 379 617.4 L 384.6 618.6 C 392 628.9 400.3 638.6 409.20000000000005 647.6 L 410.7 649.3 z M 940.8 550.4 C 892.9 683.5999999999999 766.5999999999999 772.4 625.0999999999999 772.4 C 593.8 772.6 562.5999999999999 768.1 532.5999999999999 759.3 C 537.1999999999999 748.9 539.5999999999999 737.6999999999999 539.6999999999999 726.3 C 540.0999999999999 726.3 540.9 726.6999999999999 541.3 726.6999999999999 C 568.5 734.6999999999999 596.6999999999999 738.6999999999999 625.0999999999999 738.5999999999999 C 682.8999999999999 738.4999999999999 736.3 723.0999999999999 785.3999999999999 692.4999999999999 C 834.3999999999999 661.8999999999999 871.6999999999998 620.5999999999999 897.0999999999999 568.6999999999999 L 897.4999999999999 568.3 L 940.8 550.4 z" stroke-linecap="round" />
</g>
		<g transform="matrix(1 0 0 1 71.5 -11.76)" id="Layer_1" clip-path="url(#CLIPPATH_6)"  >
<clipPath id="CLIPPATH_6" >
	<rect transform="matrix(1 0 0 1 -71.5 11.76)" id="SVGID_00000132801979269337085580000000538142647701171880_" x="-357.35" y="-357.35" rx="0" ry="0" width="714.7" height="714.7" />
</clipPath>
<path style="stroke: none; stroke-width: 1; stroke-dasharray: none; stroke-linecap: butt; stroke-dashoffset: 0; stroke-linejoin: miter; stroke-miterlimit: 4; fill: rgb(255,255,255); fill-rule: nonzero; opacity: 1;" vector-effect="non-scaling-stroke"  transform=" translate(-697.35, -436.29)" d="M 668.4 563.5 L 769.1999999999999 585.7 L 612.8 650.5 C 612 650.5 611.5999999999999 650.9 610.8 650.9 C 606.9 650.8 604.9 648.8 604.8 644.9 L 604.8 227.6 C 604.9 223.7 606.9 221.7 610.8 221.7 C 611.5 221.6 612.1999999999999 221.79999999999998 612.8 222.1 L 789.9 284 L 668.8 306.6 C 657.4 309.20000000000005 651.5999999999999 316.3 651.3 328 L 651.3 542.4 C 651.3 554.2 656.9 561.2 668.4 563.5 z" stroke-linecap="round" />
</g>
		<g transform="matrix(1 0 0 1 -311.52 -11.3)" id="Layer_1" clip-path="url(#CLIPPATH_7)"  >
<clipPath id="CLIPPATH_7" >
	<rect transform="matrix(1 0 0 1 311.52 11.3)" id="SVGID_00000132801979269337085580000000538142647701171880_" x="-357.35" y="-357.35" rx="0" ry="0" width="714.7" height="714.7" />
</clipPath>
<path style="stroke: none; stroke-width: 1; stroke-dasharray: none; stroke-linecap: butt; stroke-dashoffset: 0; stroke-linejoin: miter; stroke-miterlimit: 4; fill: rgb(140,122,183); fill-rule: nonzero; opacity: 1;" vector-effect="non-scaling-stroke"  transform=" translate(-314.33, -436.75)" d="M 312.2 315.8 L 360.2 306.7 L 360.2 566.8 L 311.4 556 L 272.09999999999997 547.3 C 269.49999999999994 546.8 268.29999999999995 545.1999999999999 268.49999999999994 542.5 L 268.49999999999994 328.1 C 268.19999999999993 325.8 269.79999999999995 323.70000000000005 272.09999999999997 323.3 L 312.2 315.8 z" stroke-linecap="round" />
</g>
		<g transform="matrix(1 0 0 1 71.5 -11.76)" id="Layer_1" clip-path="url(#CLIPPATH_8)"  >
<linearGradient id="SVGID_SVGID_00000147200436233561406450000008453822583445049765__3" gradientUnits="userSpaceOnUse" gradientTransform="matrix(0.5 0 0 0.5 184.6 210.65)"  x1="866.1644" y1="451.3174" x2="1333.3245" y2="451.3174">
<stop offset="0%" style="stop-color:rgb(92,73,152);stop-opacity: 1"/>
<stop offset="0%" style="stop-color:rgb(92,73,152);stop-opacity: 1"/>
<stop offset="100%" style="stop-color:rgb(82,55,141);stop-opacity: 1"/>
</linearGradient>
<clipPath id="CLIPPATH_8" >
	<rect transform="matrix(1 0 0 1 -71.5 11.76)" id="SVGID_00000132801979269337085580000000538142647701171880_" x="-357.35" y="-357.35" rx="0" ry="0" width="714.7" height="714.7" />
</clipPath>
<path style="stroke: none; stroke-width: 1; stroke-dasharray: none; stroke-linecap: butt; stroke-dashoffset: 0; stroke-linejoin: miter; stroke-miterlimit: 4; fill: url(#SVGID_SVGID_00000147200436233561406450000008453822583445049765__3); fill-rule: nonzero; opacity: 1;" vector-effect="non-scaling-stroke"  transform=" translate(-697.35, -436.29)" d="M 668.4 563.5 L 769.1999999999999 585.7 L 612.8 650.5 C 612 650.5 611.5999999999999 650.9 610.8 650.9 C 606.9 650.8 604.9 648.8 604.8 644.9 L 604.8 227.6 C 604.9 223.7 606.9 221.7 610.8 221.7 C 611.5 221.6 612.1999999999999 221.79999999999998 612.8 222.1 L 789.9 284 L 668.8 306.6 C 657.4 309.20000000000005 651.5999999999999 316.3 651.3 328 L 651.3 542.4 C 651.3 554.2 656.9 561.2 668.4 563.5 z" stroke-linecap="round" />
</g>
		<g transform="matrix(1 0 0 1 -128.5 -11.77)" id="Layer_1" clip-path="url(#CLIPPATH_9)"  >
<linearGradient id="SVGID_SVGID_00000170986576816716051080000000457877711619541649__4" gradientUnits="userSpaceOnUse" gradientTransform="matrix(0.5 0 0 0.5 184.6 210.65)"  x1="625.5359" y1="60.2033" x2="625.5359" y2="854.2534">
<stop offset="0%" style="stop-color:rgb(140,122,183);stop-opacity: 1"/>
<stop offset="100%" style="stop-color:rgb(92,73,152);stop-opacity: 1"/>
<stop offset="100%" style="stop-color:rgb(92,73,152);stop-opacity: 1"/>
</linearGradient>
<clipPath id="CLIPPATH_9" >
	<rect transform="matrix(1 0 0 1 128.5 11.77)" id="SVGID_00000132801979269337085580000000538142647701171880_" x="-357.35" y="-357.35" rx="0" ry="0" width="714.7" height="714.7" />
</clipPath>
<path style="stroke: none; stroke-width: 1; stroke-dasharray: none; stroke-linecap: butt; stroke-dashoffset: 0; stroke-linejoin: miter; stroke-miterlimit: 4; fill: url(#SVGID_SVGID_00000170986576816716051080000000457877711619541649__4); fill-rule: nonzero; opacity: 1;" vector-effect="non-scaling-stroke"  transform=" translate(-497.35, -436.28)" d="M 609.4 221.7 L 382.79999999999995 264.5 C 379.09999999999997 265.3 377.19999999999993 267.6 377.19999999999993 271.5 L 377.19999999999993 594.2 C 377.19999999999993 598 378.99999999999994 600.3000000000001 382.5999999999999 601.1 L 609.1999999999999 650.6 C 614.8 651.7 617.5999999999999 649.4 617.4999999999999 643.7 L 617.4999999999999 228.8 C 617.5999999999999 224.10000000000002 615.2999999999998 221.8 610.6999999999999 221.70000000000002 L 609.4 221.70000000000002 z" stroke-linecap="round" />
</g>
		<g transform="matrix(1 0 0 1 -130.15 -12.35)" id="Layer_1" clip-path="url(#CLIPPATH_10)"  >
<clipPath id="CLIPPATH_10" >
	<rect transform="matrix(1 0 0 1 -8.1 -2.1)" id="SVGID_00000016785983883334044610000005718891230944580746_" clip-path="url(#undefined)" x="-104.8" y="-190.5" rx="0" ry="0" width="209.6" height="381" />
</clipPath>
<path style="stroke: none; stroke-width: 1; stroke-dasharray: none; stroke-linecap: butt; stroke-dashoffset: 0; stroke-linejoin: miter; stroke-miterlimit: 4; fill: rgb(167,148,198); fill-rule: nonzero; opacity: 0.5;" vector-effect="non-scaling-stroke"  transform=" translate(-495.7, -435.7)" d="M 407.8 302.3 L 407.8 565.4000000000001 L 476.4 579.8000000000001 L 476.4 290.5 L 407.8 302.3 z M 504.7 286.1 L 504.7 586.4000000000001 L 583.6 599.5000000000001 L 583.6 271.9 L 504.7 286.1 z" stroke-linecap="round" />
</g>
		<g transform="matrix(1 0 0 1 208.25 -276.1)" id="Layer_1" clip-path="url(#CLIPPATH_11)"  >
<clipPath id="CLIPPATH_11" >
	<rect transform="matrix(1 0 0 1 -208.25 276.1)" id="SVGID_00000132801979269337085580000000538142647701171880_" x="-357.35" y="-357.35" rx="0" ry="0" width="714.7" height="714.7" />
</clipPath>
<path style="stroke: none; stroke-width: 1; stroke-dasharray: none; stroke-linecap: butt; stroke-dashoffset: 0; stroke-linejoin: miter; stroke-miterlimit: 4; fill: rgb(57,188,219); fill-rule: nonzero; opacity: 1;" vector-effect="non-scaling-stroke"  transform=" translate(-834.1, -171.95)" d="M 903.8 172.1 C 903.6999999999999 191.29999999999998 896.9 207.7 883.3 221.3 C 869.6999999999999 234.90000000000003 853.3 241.60000000000002 834 241.60000000000002 C 814.8 241.60000000000002 798.4 234.8 784.8 221.20000000000002 C 771.1999999999999 207.60000000000002 764.4 191.20000000000002 764.4 172 C 764.4 152.8 771.1999999999999 136.4 784.6999999999999 122.8 C 798.1999999999999 109.19999999999999 814.5999999999999 102.3 833.9 102.3 C 853.1999999999999 102.2 869.6999999999999 109.1 883.4 122.69999999999999 C 897.1 136.29999999999998 903.8 152.7 903.8 172.1 z" stroke-linecap="round" />
</g>
		<g transform="matrix(1 0 0 1 -172.75 276.85)" id="Layer_1" clip-path="url(#CLIPPATH_12)"  >
<clipPath id="CLIPPATH_12" >
	<rect transform="matrix(1 0 0 1 172.75 -276.85)" id="SVGID_00000132801979269337085580000000538142647701171880_" x="-357.35" y="-357.35" rx="0" ry="0" width="714.7" height="714.7" />
</clipPath>
<path style="stroke: none; stroke-width: 1; stroke-dasharray: none; stroke-linecap: butt; stroke-dashoffset: 0; stroke-linejoin: miter; stroke-miterlimit: 4; fill: rgb(57,188,219); fill-rule: nonzero; opacity: 1;" vector-effect="non-scaling-stroke"  transform=" translate(-453.1, -724.9)" d="M 523 724.9 C 523 744.1999999999999 516.2 760.6999999999999 502.5 774.3 C 488.9 787.9 472.4 794.8 453.1 794.8 C 433.8 794.8 417.3 788 403.70000000000005 774.3 C 390.1000000000001 760.5999999999999 383.20000000000005 744.1999999999999 383.20000000000005 724.9 C 383.20000000000005 705.6 390.00000000000006 689.1 403.70000000000005 675.5 C 417.40000000000003 661.9 433.80000000000007 655 453.1 655 C 472.40000000000003 655 488.90000000000003 661.8 502.5 675.5 C 516.1 689.1 523 705.6 523 724.9 z" stroke-linecap="round" />
</g>
		<g transform="matrix(1 0 0 1 275.6 -10.75)" id="Layer_1" clip-path="url(#CLIPPATH_13)"  >
<clipPath id="CLIPPATH_13" >
	<rect transform="matrix(1 0 0 1 -275.6 10.75)" id="SVGID_00000132801979269337085580000000538142647701171880_" x="-357.35" y="-357.35" rx="0" ry="0" width="714.7" height="714.7" />
</clipPath>
<path style="stroke: none; stroke-width: 1; stroke-dasharray: none; stroke-linecap: butt; stroke-dashoffset: 0; stroke-linejoin: miter; stroke-miterlimit: 4; fill: rgb(92,73,152); fill-rule: nonzero; opacity: 1;" vector-effect="non-scaling-stroke"  transform=" translate(-901.45, -437.3)" d="M 983.2 356.3 L 983.2 508.9 C 983.3000000000001 512.4 981.2 515.6 977.9000000000001 516.8 L 947.5000000000001 529.3 L 825.6000000000001 579.5999999999999 L 825.2000000000002 579.5999999999999 C 824.7000000000002 579.6999999999999 824.2000000000002 579.6999999999999 823.7000000000002 579.5999999999999 C 821.1000000000001 579.5999999999999 819.7000000000002 578.3 819.7000000000002 575.5999999999999 L 819.7000000000002 298.5 C 819.7000000000002 297 820.5000000000001 295.7 821.9000000000002 295 L 822.7000000000002 295 C 822.9000000000002 294.9 823.2000000000002 294.9 823.5000000000001 295 C 824.0000000000001 295 824.4000000000001 295.1 824.8000000000001 295.3 L 825.7 295.3 L 945.6 336.8 L 977.4 347.90000000000003 C 981.3 349.3 983.3 352.1 983.2 356.3 L 983.2 356.3 z" stroke-linecap="round" />
</g>
		<g transform="matrix(1 0 0 1 122.29 -10.5)" id="Layer_1" clip-path="url(#CLIPPATH_14)"  >
<clipPath id="CLIPPATH_14" >
	<rect transform="matrix(1 0 0 1 -122.29 10.5)" id="SVGID_00000132801979269337085580000000538142647701171880_" x="-357.35" y="-357.35" rx="0" ry="0" width="714.7" height="714.7" />
</clipPath>
<path style="stroke: none; stroke-width: 1; stroke-dasharray: none; stroke-linecap: butt; stroke-dashoffset: 0; stroke-linejoin: miter; stroke-miterlimit: 4; fill: rgb(140,122,183); fill-rule: nonzero; opacity: 1;" vector-effect="non-scaling-stroke"  transform=" translate(-748.14, -437.55)" d="M 822.8 294.8 L 671.9 323.2 C 669.6 323.5 668 325.5 668.1999999999999 327.8 L 668.1999999999999 542.6 C 667.9999999999999 544.9 669.5999999999999 546.9 671.8 547.2 L 822.6999999999999 580.2 C 825.6999999999999 580.9000000000001 827.4999999999999 579.7 828.0999999999999 576.6 C 828.0999999999999 576.3000000000001 828.0999999999999 575.9 828.0999999999999 575.6 L 828.0999999999999 299.4 C 828.0999999999999 296.29999999999995 826.5999999999999 294.79999999999995 823.4999999999999 294.7 C 823.3 294.7 823 294.7 822.8 294.8 L 822.8 294.8 z" stroke-linecap="round" />
</g>
</g>
</g>
</svg>
