<svg xmlns="http://www.w3.org/2000/svg" xmlns:xlink="http://www.w3.org/1999/xlink" viewBox="0 0 116 81" fill="#fff" fill-rule="evenodd" stroke="#000" stroke-linecap="round" stroke-linejoin="round"><use xlink:href="#A" x=".5" y=".5"/><symbol id="A" overflow="visible"><path d="M98.795 35.615c.784-2.392 1.046-4.784 1.046-7.176C99.841 12.758 87.557 0 72.659 0 61.42 0 51.75 7.176 47.568 17.542c-3.397-4.518-8.625-6.91-14.636-6.91-10.455 0-19.079 9.037-19.079 20.199 0 1.861.261 3.721.784 5.581C6.012 39.602 0 47.309 0 57.409 0 70.432 10.193 80 22.739 80h69.784C105.068 80 115 70.432 115 57.409c-.262-10.631-6.796-18.605-16.205-21.794h0zm-15.159 9.834c-2.091 8.239-9.147 14.086-17.511 14.086-1.307 0-2.875-.266-4.443-.532-1.307-.532-2.875-1.063-4.443-1.595L44.693 70.166c-1.045 1.063-2.352 1.595-3.659 1.595s-2.875-.532-3.659-1.595c-1.046-1.063-1.569-2.392-1.569-3.721s.523-2.924 1.569-3.721l12.546-12.757c-2.091-3.987-2.875-8.771-1.568-13.023 2.091-8.239 9.148-14.086 17.511-14.086 1.307 0 2.875.266 4.443.531 4.705 1.063 8.625 4.253 10.977 8.505a15.77 15.77 0 0 1 2.352 13.555h0zM69 30.034c-1.046-.266-1.829-.266-2.875-.266-4.965 0-9.67 3.455-10.716 8.77-.784 2.924-.261 6.645 1.568 9.037a15.12 15.12 0 0 0 2.875 2.924c1.045.797 2.352 1.329 3.659 1.595 1.045.266 1.829.266 2.875.266 4.965 0 9.67-3.455 10.716-8.771.784-2.923.261-6.113-1.307-8.771-1.569-2.126-4.182-3.987-6.796-4.784h0z" fill="#0078d7" stroke="none"/></symbol></svg>
