<?xml version="1.0" standalone="no"?>
<!DOCTYPE svg PUBLIC "-//W3C//DTD SVG 1.0//EN" "http://www.w3.org/TR/2001/REC-SVG-20010904/DTD/svg10.dtd">
<svg xmlns="http://www.w3.org/2000/svg" viewBox="0 0 1152 1152" xmlns:inkscape ="http://www.inkscape.org/namespaces/inkscape" >
<g isVisble = "True" inkscape:label = "express-route-direct Default Layer" inkscape:groupmode = "layer" ><path style="fill:#773ADC;stroke:none; stroke-width:1" d="m4.89,3.47l1.16,0.67l-3.21,5.56l-1.16,-0.67l3.21,-5.56zm1.16,0.77l1.16,-0.67l3.21,5.56l-1.16,0.67l-3.21,-5.56l0,0zm3.15,5.56l0,1.34l-6.42,0l0,-1.34l6.42,0z" transform = "matrix(64.63751,0,0,64.63747,5.400505,8.298912)" vector-effect="non-scaling-stroke" pen = "64.63795,64.63789" />
<circle style="fill:#86D633;stroke:none; stroke-width:1" cx = "6.124" cy = "2.649" r = "0.0169375in" transform = "matrix(64.63749,0,0,64.63747,5.400497,8.298935)" vector-effect="non-scaling-stroke" pen = "64.63795,64.63793" />
<circle style="fill:#86D633;stroke:none; stroke-width:1" cx = "1.626" cy = "10.564" r = "0.0169375in" transform = "matrix(64.63747,0,0,64.63746,5.400528,8.298935)" vector-effect="non-scaling-stroke" pen = "64.63794,64.63792" />
<circle style="fill:#FFFFFF;stroke:#673AB7; stroke-width:8" cx = "12.284" cy = "11.348" r = "0.05546875in" transform = "matrix(64.6375,0,0,64.63751,5.400497,8.298874)" vector-effect="non-scaling-stroke" pen = "64.63792,64.63796" class = " msportalfx-svg-c01" />
<path style="fill:#773ADC;stroke:none; stroke-width:1" d="m9.85,12.72a0.3 0.3,0 0,1 -0.21,-0.51l1.13,-1.13a0.3 0.3,0 1,1 0.42,0.42l-1.13,1.13a0.3 0.3,0 0,1 -0.21,0.09m0.83,0.83a0.3 0.3,0 0,1 -0.21,-0.51l1.13,-1.13a0.3 0.3,0 1,1 0.42,0.42l-1.12,1.13a0.3 0.3,0 0,1 -0.21,0.09m0.82,0.82a0.3 0.3,0 0,1 -0.21,-0.51l1.13,-1.13a0.3 0.3,0 1,1 0.43,0.42l-1.13,1.13a0.3 0.3,0 0,1 -0.21,0.08m0.41,-3.73a0.3 0.3,0 0,1 -0.21,-0.51l1.13,-1.13a0.3 0.3,0 0,1 0.42,0.42l-1.13,1.13a0.3 0.3,0 0,1 -0.21,0.09m0.83,0.83a0.3 0.3,0 0,1 -0.21,-0.51l1.13,-1.13a0.3 0.3,0 1,1 0.43,0.42l-1.13,1.13a0.3 0.3,0 0,1 -0.21,0.09m0.82,0.82a0.3 0.3,0 0,1 -0.21,-0.51l1.13,-1.13a0.3 0.3,0 0,1 0.42,0.43l-1.13,1.13a0.3 0.3,0 0,1 -0.21,0.09" transform = "matrix(64.63708,0,0,64.63711,5.400683,8.297495)" vector-effect="non-scaling-stroke" pen = "64.63794,64.63796" />
<path style="fill:#A67AF4;stroke:none; stroke-width:1" d="m9.62,12.02a0.3 0.3,0 0,0 -0.43,0l-1.92,1.92a5.72 5.72,0 0,0 2.95,2.63l1.77,-1.77a0.3 0.3,0 0,0 0,-0.43l-2.37,-2.37z" transform = "matrix(64.63747,0,0,64.6375,5.400505,8.298859)" vector-effect="non-scaling-stroke" pen = "64.63789,64.63795" />
<path style="fill:#B796F9;stroke:none; stroke-width:1" d="m14.97,6.25l-2.19,2.19a0.3 0.3,0 0,0 0,0.43l2.37,2.37a0.3 0.3,0 0,0 0.43,0l2.04,-2.03a5.7 5.7,0 0,0 -2.63,-2.95" transform = "matrix(64.6371,0,0,64.63712,5.400422,3.349932)" vector-effect="non-scaling-stroke" pen = "64.63794,64.63792" />
</g>
</svg>
